<?xml version="1.0" encoding="UTF-8"?>
<svg width="225px" height="225px" viewBox="0 0 225 225" version="1.1" xmlns="http://www.w3.org/2000/svg" xmlns:xlink="http://www.w3.org/1999/xlink">
    <!-- Generator: Sketch 64 (93537) - https://sketch.com -->
    <title>logo-akt-01</title>
    <desc>Created with Sketch.</desc>
    <g id="Page-1" stroke="none" stroke-width="1" fill="none" fill-rule="evenodd">
        <g id="logo-akt-01">
            <path d="M111.8,1.8 C115.9,1.8 120.3,2.2 124.3,2.6 L136.1,4.5 C144.9,6.4 153.2,9.4 161.1,13.4 L165.6,15.8 C172.7,19.3 177.4,23.7 183.6,28.3 C185.3,29.6 187.4,31.8 189,33.3 C190.2,34.5 191.2,35.5 192.3,36.6 L198.6,43.9 C199.2,44.7 199.5,45.1 200.1,45.9 L202.9,49.8 C210.2,60.5 215.7,72.5 218.9,85.1 C223.3,102.7 223.3,122.2 219,139.7 C216.9,148.1 213.5,156.2 209.7,164 C209.2,164.9 209,165.2 208.5,166 L200.7,178.2 L194.8,185.6 C190.8,190 186.6,194.3 181.9,197.9 C178.4,200.6 174.9,203.3 171.2,205.7 C170.5,206.2 170,206.5 169.3,207 C165.1,209.7 160.4,211.8 155.9,213.9 C155,214.3 154.5,214.6 153.5,215 C132.7,223.4 108,225.4 86.2,219.9 C82.3,218.9 79.2,218 75.7,216.8 L68.2,213.8 C67.3,213.4 66.6,213.1 65.8,212.7 C64.3,212 62.9,211.2 61.4,210.5 L41.7,197.4 C41.3,197 41.3,196.9 40.8,196.6 C37.5,194.2 34.9,191.1 32,188.3 L30.4,186.4 C27.2,182.6 23.9,179 21.1,174.8 C20.6,174.1 20.3,173.6 19.8,172.9 L14.7,164.1 C11.2,157 7.8,149.7 5.9,141.9 C3.4,131.8 1.8,122.1 1.8,111.5 C1.8,110 2,109.7 2.1,108.6 C2.2,107.5 2,106.2 2.1,105.1 C2.4,96.3 4.9,85 7.8,76.6 L10.7,69.1 C11.1,68 11.4,67.7 11.8,66.7 C12.6,64.9 13.1,63.8 13.9,62.2 C17.4,55.1 21.8,48.4 26.8,42.4 L30.9,37.8 C32.2,36.5 33,35.5 34.2,34.2 L41.3,27.7 C41.8,27.2 41.8,27.4 42.3,27 L45.2,24.7 C53.8,17.5 66.1,11.4 76.6,7.9 C84.2,5.4 94.2,2.6 102.2,2.4 C105.1,2.3 108.6,1.8 111.8,1.8 L111.8,1.8 Z M108.2,0.4 C96.9,0.8 85.7,3.1 74.2,6.9 L57.7,14.4 C56.9,14.8 56.2,15.2 55.5,15.7 C52.6,17.5 49.8,19.1 47.1,21.2 C44.6,23.2 41.7,24.8 39.4,27.1 L35.8,30.4 C33.7,32.5 30.8,34.8 29,37.3 L22.7,44.9 C19.2,49.5 15.9,54.3 13.3,59.6 C11.4,63.5 9.5,67.3 7.9,71.3 C7.2,73.1 6.6,74.7 6,76.4 C2.1,88 0.2,98.8 0.2,112 C0.2,127.7 2.8,140.7 8.3,154.7 C10.2,159.6 12.8,164.1 15.2,168.7 C18.3,174.5 22.4,180.1 26.7,185.1 L29.9,188.9 C31.5,190.8 35,194.3 37,195.8 L43.6,201.4 C44.1,201.8 44,201.8 44.6,202.2 C46,203.3 47.2,204.1 48.7,205.1 C56.3,210.2 63,213.7 71.4,217.2 C85.4,222.9 99.6,225.2 115.5,225 L125.1,224.2 C133,223 140.5,221.6 147.9,219.2 C151.2,218.1 154.7,216.8 157.9,215.3 C159.5,214.5 160.9,213.9 162.4,213.2 C167.6,210.6 172.8,207.5 177.5,204 C180.7,201.6 184.2,199 187.1,196.2 L192.3,191.3 C193.1,190.5 193.2,190.3 193.9,189.4 C194.4,188.7 195.1,188.3 195.6,187.6 L197.2,185.7 C202.9,180 210,167.3 213.6,160.3 C214.1,159.4 214.2,158.8 214.7,157.9 C217.4,152.2 219.4,145.9 220.9,139.8 C221.9,135.8 222.4,132.2 223.1,128.1 C226,111.5 223.3,92.4 218.3,77.3 L212.3,62.7 C211.9,61.8 211.6,61.2 211.1,60.4 L204.5,49.6 C204,48.8 203.7,48.3 203.1,47.5 L198.5,41.6 C195.7,37.7 192,34.4 188.6,30.9 L181.1,24.4 L168.9,16.1 C164.6,13.4 159.9,11.1 155.2,9.3 C153.4,8.6 152,7.9 150.2,7.4 L139.6,4.1 C131.7,2.1 124.1,1 116.5,0.7 L108.2,0.7 L108.2,0.4 Z" id="Shape" fill="#0C294B"></path>
            <path d="M24.5,112.6 C24.5,108.5 25.1,102 25.8,97.9 C26.1,96.3 26.4,94.9 26.7,93.3 C28.7,84.5 31.8,75.8 36.6,68.1 C39.1,64.1 41.6,60.4 44.4,56.8 C48.4,51.8 53.3,47.7 58,43.4 C60.7,40.9 66,37.5 69.3,35.8 C75,33 80.5,30.3 86.7,28.5 L100,25.5 L112.7,24.5 C114.1,24.5 113.9,24.7 115,24.8 C115.8,24.9 116.8,24.8 117.6,24.8 C119.1,24.8 119.1,25 120.2,25.1 C126.4,25.5 132.4,26.8 138.1,28.6 C140.9,29.5 143.4,30.5 146.1,31.6 C153.8,34.7 163.3,40.6 169.5,46.2 C171.3,47.8 173.6,49.6 175,51.4 C175.5,52.1 175.5,52.2 176.2,52.8 L178.8,55.7 C183,60.3 188,68 190.6,73.7 C190.9,74.3 191,74.8 191.4,75.5 C193.6,80 195.2,84.5 196.5,89.5 C197.2,92.2 198,95.4 198.4,98.3 C199.9,108.2 199.7,119.4 197.8,129.1 C196.6,134.8 195,140.1 192.9,145.4 C190.5,151.4 187.4,157.5 183.5,162.6 C182.7,163.7 182.1,164.5 181.3,165.6 C180.5,166.7 179.5,167.6 178.8,168.6 C178.3,169.3 178.1,169.3 177.6,170 C175.5,172.3 173.4,174.7 171.1,176.8 C163.5,183.6 154.5,189.6 145,193.3 C123.6,201.7 100.9,201.7 79.4,193.3 C75.6,191.8 72,189.9 68.5,187.9 C64.6,185.7 60.7,183.2 57.3,180.2 C56.6,179.6 56.3,179.5 55.7,178.9 C51.8,175.2 47.7,171.6 44.4,167.3 C41.8,164 39.2,160.5 37.1,156.9 C36.7,156.3 36.4,155.8 36,155.1 C35.3,153.8 34.8,152.9 34.1,151.5 C33.4,150.1 33,149.3 32.3,147.7 C27.7,136.3 27.4,134.4 25.3,122.2 C24.8,120.4 24.5,115.2 24.5,112.6 L24.5,112.6 Z M23.1,109.4 C23.1,119.9 23.2,124.2 25.8,134.6 C28.1,144 31.5,151.5 36.4,159.4 L47.2,173.6 L61.8,186.2 C64,187.7 66.1,189.1 68.6,190.4 C69.4,190.8 69.5,191 70.2,191.4 L77.7,194.9 C86.2,198.2 97.7,201.7 106.9,201.6 C108.9,201.6 109.9,201.9 112.1,201.9 C114.3,201.9 115.3,201.6 117.3,201.6 C122.2,201.6 127,200.5 131.8,199.6 C135.9,198.8 144.6,195.9 148.5,194 C149.2,193.6 149.7,193.5 150.3,193.2 L155.8,190.3 C159,188.4 165.7,184 168.8,181.2 L171.7,178.6 C172.5,178 172.6,178 173.3,177.3 C173.8,176.7 174.2,176.4 174.7,175.8 L181.2,168.7 C185,163.6 188.1,159.3 191.1,153.6 C192.9,150.2 194.9,145.4 196.2,141.8 C202.7,123.3 202.6,102.4 196.4,83.8 L194.2,77.9 C193.2,75.3 191.1,70.9 189.8,68.7 C189.1,67.5 188.5,66.4 187.8,65.2 C183.2,58.1 178,51.6 171.7,45.9 L164,39.7 C160,36.6 154.6,33.9 150.1,31.6 C128.4,20.7 101.8,20.5 79.1,29.4 L71.7,32.7 C67.5,34.8 63.6,37.3 59.9,40 L56.1,42.9 C53.7,44.7 51.7,46.8 49.6,48.9 C43.9,54.6 44.1,54.4 39.6,60.4 C38.8,61.4 38.2,62.4 37.5,63.5 C29.1,76.2 23.1,94.5 23.1,109.4 Z" id="Shape" fill="#0C294B"></path>
            <path d="M142.8,100.1 L133.7,109.6 C132.9,110.4 132.7,110.2 132.6,111.4 C138.3,111.4 143.4,112 149.1,112 L136.3,112.6 C134.4,112.6 133.5,112.9 132,112.9 C129.7,112.9 128.1,112.8 125.6,113.2 C124.1,113.4 125.3,114.2 123.7,117.9 C122,121.9 121.3,119.6 123.7,122.9 C126,126 131.3,124.6 135.5,124.5 C136.6,124.5 137.9,124.5 139,124.5 C152.6,124.5 150.4,125.8 156,120.1 C158.3,117.8 162.5,115.4 162.5,111.8 C162.5,110 158.7,106.4 157.2,105.2 L155,103.3 C151.1,99.4 151.4,99.6 146.8,100.2 C145.8,100.2 144,100.1 142.8,100.1 Z" id="Path" fill="#FBD206"></path>
            <path d="M85.3,138.2 C84.8,139.1 84.8,139.1 83.8,139.6 C84.3,138.5 84.1,138.7 85.3,138.2 L85.3,138.2 Z M85.4,138.1 L85.3,138.3 L85.4,138.1 L85.4,138.1 Z M85.7,137.8 L85.4,138.1 L85.7,137.8 L85.7,137.8 Z M86,137.5 L85.7,137.8 L86,137.5 L86,137.5 Z M86.3,137.2 L86,137.5 L86.3,137.2 L86.3,137.2 Z M86.6,136.9 L86.3,137.2 L86.6,136.9 Z M86.6,136.9 C86.9,135.8 88.9,134.3 90,133.1 C90.7,132.4 90.8,132 91.6,131.2 C92.3,130.5 92.8,130 93.5,129.3 L98.6,123.6 C100.5,121.3 101.1,122.4 98.9,119.1 C97.2,116.6 98,114.2 96.2,113.9 C95.4,113.8 93.1,113.9 92.1,113.9 C91.5,114.1 80.8,125.1 79.4,126.4 C78.3,127.5 77.3,128.5 76.2,129.6 C72.3,133.5 73.6,133.9 73.5,139.7 C73.5,142.2 72,147.7 75.5,149.6 C77.2,150.5 78.9,149.9 81,149.9 C82.7,149.9 85.8,150.1 87.3,149.8 C92.8,148.9 89.2,151 95.3,145 C97.9,142.4 97.2,143.3 97,140.9 C96.9,139.1 97,136.4 97,134.5 C97,132.2 96.7,130.9 96.7,128.4 C95.2,128.5 96,128.7 93.9,130.3 C92.6,131.4 88.4,135.9 86.6,136.9 Z" id="Shape" fill="#00A7E1"></path>
            <path d="M137,138.1 L137.3,138.2 C138.2,138.7 138.5,139.3 139.2,140.3 L137.1,138.4 L137,138.1 Z M137,138.1 L136.7,137.8 L137,138.1 L137,138.1 Z M136.7,137.8 L136.4,137.5 L136.7,137.8 L136.7,137.8 Z M136.4,137.5 L136.1,137.2 L136.4,137.5 L136.4,137.5 Z M136.2,137.2 L135.9,136.9 L136.2,137.2 L136.2,137.2 Z M135.9,136.9 L135.6,136.6 L135.9,136.9 L135.9,136.9 Z M135.6,136.6 C134.6,136.3 134.3,135.8 133.6,135.1 L120.5,123 C118.2,123.5 119.3,124.6 112.7,126.2 C112.7,127.8 112.1,128.7 112.5,130.4 C112.9,132.2 115.3,134.1 117,135.8 L119.6,138.1 C122.9,141.4 126,144.5 129.3,147.8 C131.6,150.1 132.8,149.6 137.1,149.6 C140.5,149.6 147.8,150.8 148.7,146.7 C148.9,145.5 148.5,132.2 148.5,132.2 C147.7,130.9 146.2,129.8 145.1,128.6 C144.1,127.6 142.8,125.5 140.7,125.8 C138,126.2 128.9,125.9 127.3,126.6 C127.6,127.8 128.5,128.1 129.2,129 C130,130.1 130.5,130.5 131.4,131.4 C132.2,132.5 135.4,135.9 135.6,136.6 Z" id="Shape" fill="#CDDC29"></path>
            <path d="M98.8,134.6 C98.8,136.3 98.4,137 98.5,138.4 C98.6,139.6 98.7,139 98.8,140.1 L98.8,150.8 C98.8,152.7 98.8,152.9 99.7,153.9 L103.9,158.4 C105.9,160.4 108.7,163.9 111.1,163.7 C111.3,163.7 112.5,163.4 112.7,163.3 C114.2,162.7 119.2,156.7 120.2,155.7 C123.9,152 123.3,152.4 123.3,145.5 C123.3,142.9 120.7,141.9 118,139.2 L113.5,135 C112.7,134.2 112.9,134 111.7,133.9 C111.7,136.9 111.4,139.3 111.4,142.6 C111.4,144.5 111.1,145.3 111.1,146.9 C111.1,148.4 111.1,150 111.1,151.5 L110.5,145.4 C110.5,143.2 110.5,140.9 110.5,138.7 L110.2,129.1 C110.2,127.8 109.9,127.5 109.9,125.9 C108.6,125.9 106.6,125.4 105.6,125 C100.4,123.1 104.2,122.1 100.1,125 C97.1,127.5 98.8,129.4 98.8,134.6 Z" id="Path" fill="#00AF4C"></path>
            <path d="M59.3,112.8 C59.3,113.9 60.1,115 60.8,115.7 L64.5,119.3 C71.9,126 68.6,124.7 78.2,124.7 C80.2,124.7 81.5,122.1 82.6,121 L88.1,115.2 C88.9,114.4 89.1,114.6 89.2,113.4 L77.6,112.8 C76.2,112.8 74.9,112.8 73.5,112.8 L73.8,112.5 C74.9,111.9 77.8,112.2 79,112.2 L91.1,111.9 C92.8,111.6 95.2,111.8 97,111.4 C98.1,106.8 97.7,107.7 99.9,103.6 L97.2,101 C96,99.6 96.1,100.1 90.9,100.1 C87.4,100.1 83.1,99.9 80.1,100.3 C77.3,100.7 71.4,99.5 69.7,100.9 C67.9,102.3 66,104.8 64.2,106.4 C63.6,106.9 63.4,106.9 62.7,107.6 C61.4,108.9 59.3,110.7 59.3,112.8 Z" id="Path" fill="#4DC8ED"></path>
            <path d="M98.8,73.1 C98.8,74.3 98.4,80.3 99.1,80.9 L107.1,88.2 C108.1,89.1 108.7,90.4 110.1,90.7 L110.7,82.9 C110.8,81.6 110.6,79.9 110.7,78.6 C110.9,77.2 111,76.3 111,74.5 L111.3,74.5 C111.3,76.5 111.3,78.6 111.3,80.6 C111.3,83 111.6,84.1 111.6,86.4 C111.6,88.6 111.6,90.5 111.8,92.3 C112.1,94.4 111.7,96.2 112.1,98.3 C113.5,98.6 115,98.8 116.3,99.4 C117.6,100 118.5,100.6 119.7,101.2 C120.4,100.7 123.5,98 123.5,97.1 C123.5,93 123.8,74.6 123.2,71.9 C122.9,70.9 122.6,70.7 121.9,70 L115.5,63.3 C112.4,60.2 110.6,59.6 107.4,62.9 C106.3,64 105.3,64.8 104.4,66 C103,67.9 98.8,70.7 98.8,73.1 Z" id="Path" fill="#F287B7"></path>
            <path d="M136.2,87 L135.9,87.3 L136.2,87 L136.2,87 Z M136.4,86.8 L136.1,87.1 L136.4,86.8 L136.4,86.8 Z M136.7,86.5 L136.4,86.8 L136.7,86.5 Z M136.7,86.5 L136.7,86.2 L137,86.4 L136.7,86.5 L136.7,86.5 Z M135.9,87.3 C135.6,88.4 133.6,89.9 132.5,91.1 L124.5,99.9 C123.7,100.8 122.4,101.7 121.7,102.9 C122.5,104.4 123.8,105.9 124.3,107.6 C124.9,109.7 124.1,110.8 128.4,110.8 C129.9,110.8 130.2,110.6 130.9,109.8 L138.3,102.4 C139.1,101.6 139.3,101.1 140,100.4 C140.6,99.8 141.1,99.3 141.7,98.7 L147.2,93.2 C148.9,91.5 148.6,90.2 148.6,87 C148.6,84.6 148.6,82.2 148.6,79.7 C148.6,73.4 144.2,74.5 139.3,74.5 C138.1,74.5 136.8,74.4 135.6,74.6 C134.4,74.8 133.1,74.6 132.1,74.8 C130.8,75.1 128.7,76.9 127.9,77.9 C125.5,81 124,80.5 124.9,85.4 C125.3,87.3 125,90.6 125.1,92.8 C125.1,94.1 125.4,94.6 125.4,96.3 C126.8,95.5 130.1,92.2 131.8,90.8 C133,90 133.6,88.8 135.9,87.3 Z" id="Shape" fill="#FAA61F"></path>
            <path d="M86,87.6 L85.7,87.3 L86,87.6 Z M86,87.6 C87,87.9 87.3,88.4 88,89.1 L97.8,98.1 C98.5,98.6 99.1,99.3 99.7,99.9 C100.1,100.3 100.2,100.4 100.6,100.8 L101.4,101.5 C101.4,101.5 101.5,101.6 101.6,101.6 C101.6,101.6 101.7,101.7 101.8,101.7 C103,101.1 103.7,100.5 105.1,99.8 C106.3,99.2 107.8,98.7 109.4,98.5 C110.8,92.5 108.7,92.3 107.1,90.9 C102.2,86.2 99,82.5 93.6,77.7 C92.6,76.8 91.9,75.8 90.8,75 C88.6,75 85,75.2 83,75 C80.8,74.7 77.6,74.4 75.7,75.3 C74.9,75.7 74.2,76.3 73.9,77.2 C73.1,79.3 73.7,85.2 73.7,88.6 C73.7,92.9 73.5,92 75.8,94.3 C76.5,95 79.2,98 80,98.3 C81.2,98.8 86.1,98.5 87.5,98.3 C88.7,98.1 90.2,98.2 91.4,98.2 C93.2,98.2 93.5,97.9 95.2,97.9 L92.1,94.1 C91.6,93.6 91.3,93.3 90.8,92.8 L86,87.6 Z" id="Shape" fill="#EF509C"></path>
            <path d="M30.9,112.3 C32.2,112.2 39.8,109.3 41.5,108.6 C44.9,107.2 48.4,106 51.5,104.4 C56.4,101.9 67.2,97.9 67.2,91.4 C67.2,84.8 61.4,69.4 58.3,63.2 L55.6,57.2 C54.6,57.9 55,58.4 55,61.5 L55,71.4 C54.9,72.5 54.7,72.1 54.7,73.4 C54.6,77.1 54.3,80.9 53.4,84.5 C51.7,91.2 49.6,91.8 46.8,95.3 C43.8,99.2 39.3,103.4 35.8,106.9 L32.1,110.7 C31.6,111.4 31.3,111.7 30.9,112.3 Z" id="Path" fill="#4DC8ED"></path>
            <path d="M154.7,90.2 C154.7,94.6 157.1,96.5 161,99 L168.1,102.9 C169.1,103.4 169.7,103.6 170.7,104.1 C172.4,104.9 174,105.6 175.7,106.3 C176.6,106.7 177.3,106.9 178.2,107.3 L186,110.5 C187.3,111 190.4,112.2 191.7,112.4 C190.8,111.1 190.2,111 189.2,110 C188.8,109.6 188.5,109.2 188.1,108.8 C187.5,108.2 187.3,108.3 186.6,107.7 C185.6,106.7 185.2,106.2 184,105.3 L171.6,92.5 C169.4,89.2 168.4,85.6 168,81.3 L167.1,67.1 C167.1,63.5 166.8,60.9 166.8,57.2 C165.7,58 163.7,63.1 162.9,64.6 C159.9,70.7 154.7,84.6 154.7,90.2 Z" id="Path" fill="#FAA61F"></path>
            <path d="M166.9,167.6 C166.9,164.5 166.2,161.1 166.8,158.2 C167.1,156.7 166.9,155 166.9,153.4 L167.7,144.1 C168,142.4 168,141.4 168.4,139.9 C169.3,136.2 169.9,135.8 171.8,133.2 C172.2,132.6 172.4,132.5 172.8,131.9 C174.6,129.5 181.7,122.5 183.9,120.3 L190.6,114.2 C191.6,113.3 191.5,114.1 191.8,112.8 C187.7,113.7 176.4,118 172.7,119.5 C168.1,121.3 165.8,122.7 161.9,124.7 C160.2,125.6 157.4,127.5 156.3,129 C152.7,133.8 158.3,148.3 160.6,154.1 C161.3,155.8 161.8,157.2 162.5,158.9 L165.4,165.6 C166.6,168.2 166.2,167.4 166.9,167.6 Z" id="Path" fill="#FBD206"></path>
            <path d="M166.3,56.9 C165.5,55.8 165.2,56.6 163.4,56.6 C156.2,56.6 142.6,57.2 136.5,54.7 C134.5,53.9 133.2,53 131.7,51.9 L115.2,37.6 C114.3,36.7 112.2,34.2 111.1,33.9 C111.3,34.7 111.5,35.3 111.8,36.1 C112.1,37 112.3,37.5 112.7,38.4 C113.3,40 113.8,41.4 114.5,43 L118.3,52 C120.2,55.9 122.3,60.8 125,64.1 L126.4,65.9 C131.6,71.8 146.8,65.1 152.9,62.6 L164,57.8 C165,57.4 165.3,57.1 166.3,56.9 Z" id="Path" fill="#F287B7"></path>
            <path d="M111.5,191.1 L124.8,177.7 C133.6,169.7 133.8,169.8 147.2,168.2 C148.5,168 150.7,168.2 152.1,168.2 L156.7,167.9 C158.8,168.1 157.6,168.2 161.3,168.2 C162.9,168.2 164.6,168.2 166.2,168.2 C165.7,167.5 163.2,166.5 162.2,166.1 C160.6,165.4 159.2,164.8 157.7,164.2 C156.1,163.6 154.8,163 153.2,162.3 C151.6,161.6 150.2,161.2 148.6,160.6 C145.1,159.2 132.2,155 128,157 C124.6,158.6 121.6,164.5 120,167.8 C118.3,171.2 115.8,178 114.5,181.4 C113.9,183.1 111.5,189.5 111.5,191.1 Z" id="Path" fill="#CBDB2A"></path>
            <path d="M55.8,56.6 C56.6,57.3 60.4,58.9 61.5,59.3 C62.3,59.6 62.7,59.9 63.5,60.2 C72,63.6 81.7,68.1 90.9,68.1 C96.4,68.1 101,57.8 103.1,53.3 C103.8,51.8 104.6,50.3 105.2,48.7 L109,39.1 C109.5,37.7 110.7,35.6 110.7,33.8 C109.4,34.7 107.1,37.2 105.8,38.5 C104.1,40.2 102.7,41.6 101,43.3 C98.6,45.7 90.9,52.6 87.6,53.9 C81.8,56.2 80.8,55.3 77.4,55.9 C72.5,56.8 60.7,56.6 55.8,56.6 Z" id="Path" fill="#EF509C"></path>
            <path d="M55,167.4 C55.9,167.1 56.2,166 57,164.2 L62.2,153.1 C64.8,146.6 67.2,141.2 67.2,134 C67.2,129.8 59.8,125.5 56.1,123.7 C54.4,122.9 52.9,122.1 51.3,121.3 C49.8,120.5 48.2,119.8 46.5,119.2 C45.7,118.9 44.8,118.5 44.1,118.2 L31.1,113 C31.4,114.1 31.4,113.6 33.3,115.4 C33.9,116 34,115.9 34.6,116.4 L44.9,125.8 C52.1,134 54.4,134.5 54.8,148.1 C54.8,149.6 55.1,149.1 55.1,152.7 L55.1,167.4 L55,167.4 Z" id="Path" fill="#00A7E1"></path>
            <path d="M55.8,167.9 C58.8,167.9 73.4,167.7 75.1,168 C80.3,169 85.6,167.9 91,171.8 L96.2,176.2 C97.9,177.9 99.4,179.4 101.1,181.1 L110.6,191.3 C110.5,189.5 105.2,176.7 103.7,173.8 C101.4,169.2 96.4,156.2 89.7,156.2 C86,156.2 82.9,157.1 80.1,157.9 C76,159 67.8,162.2 63.6,164 C62.1,164.9 56.6,166.8 55.8,167.9 Z" id="Path" fill="#00AF4C"></path>
            <path d="M100.5,112 C100.5,116.4 101.5,118.3 104.9,120.9 C110,124.8 120.5,122.4 120.5,112 C120.5,109.9 119.1,106.7 117.5,105.4 C116.2,104.4 116,104.2 114.5,103.5 C110.7,101.6 106.3,102.6 103.6,105.3 C102,106.9 100.5,108.8 100.5,112 Z" id="Path" fill="#CFD1D2"></path>
            <path d="M134.1,42.7 C134.1,51.6 146.6,52.5 147.7,43.5 C148.3,38.7 141.4,33.5 136.5,38.1 C135.3,39.3 134.1,41 134.1,42.7 Z" id="Path" fill="#F287B7"></path>
            <path d="M75.3,42.7 C75.3,44.3 75.5,45.6 76.4,46.8 C76.5,46.9 77,47.7 77.2,47.8 C80.8,51.8 88.7,49.9 88.7,42.7 C88.7,37.5 82,34.1 77.5,38.1 C76.5,38.9 75.3,41 75.3,42.7 Z" id="Path" fill="#EF509C"></path>
            <path d="M80.8,189.7 C82.8,189.7 84.5,188.8 85.5,187.7 C86.7,186.5 87.6,184.8 87.7,183 C87.7,182.5 87.3,180.9 87.1,180.4 C86.2,177.8 83.5,176.1 81,176 C78.6,175.9 76,177.6 74.8,179.9 C72.5,184.9 76.7,189.7 80.8,189.7 Z" id="Path" fill="#00AF4C"></path>
            <path d="M34.7,141 L34.7,142.4 C34.7,147.9 42.2,150.4 45.9,146.7 C46.2,146.4 47.2,145 47.3,144.6 C49.6,139 45.1,135.1 41.9,135.1 L40.5,135.1 C37.6,135.2 34.7,138.1 34.7,141 Z" id="Path" fill="#00A7E1"></path>
            <path d="M140.8,189.7 C143.7,189.7 145.9,188 147,185.7 C147.3,185.1 147.7,183.6 147.8,183 C147.9,181.8 147,179.5 145.9,178.3 C144.6,177 143.1,176.3 141.1,176.1 C140.5,176.1 139,176.4 138.5,176.6 C133.1,178.9 132.7,186.2 138.1,188.9 C138.7,189.2 140,189.7 140.8,189.7 Z" id="Path" fill="#CBDB2A"></path>
            <path d="M181.7,88.8 C184,88.8 185.9,88.8 187.7,86.7 C188.1,86.3 188.7,85.2 188.9,84.8 C189.7,83 189.6,80.3 188.4,78.6 C183.5,71.8 174.2,77.1 176.3,84.3 C176.9,86.2 179.5,88.8 181.7,88.8 Z" id="Path" fill="#FAA61F"></path>
            <path d="M182.5,148.5 C185.5,148.5 187.6,146.8 188.7,144.5 C191.1,139.5 186.9,135.1 183.4,135.1 C180.2,135.1 177.6,136 176.5,139.2 C176.3,139.7 175.9,141.5 175.9,142 C176.2,145.3 179,148.5 182.5,148.5 Z" id="Path" fill="#FBD206"></path>
            <path d="M34.4,82.1 C34.4,86.3 37.3,89.1 41.6,89.1 C45,89.1 47.7,86.2 47.7,81.9 C47.7,78.7 44.9,75.8 40.7,75.8 C37.4,75.7 34.4,78.9 34.4,82.1 Z" id="Path" fill="#4DC8ED"></path>
            <path d="M146.3,200.1 C146.3,202.9 148.4,206 148.6,208.2 C147.1,207.2 141.8,202.4 140.5,202.4 C139.7,202.4 139.7,202.5 139.1,202.7 C139.3,204.9 140.4,207 141,208.9 L143.1,214.9 C147.3,214.6 143.9,212.1 142.5,206.2 L149.5,211.6 C150.7,212.6 151,212.4 152.3,211.7 C152,211.1 151.7,209.7 151.4,208.8 L148.2,199.8 C147.3,199.8 147.2,200 146.3,200.1 Z" id="Path" fill="#0C294B"></path>
            <path d="M44.2,195.5 C44.8,195.8 45.1,196 45.6,196.4 C47,195.5 49.3,191.7 50.8,190 L50.5,197.2 C50.2,199.9 49.6,198.9 51.6,201.1 L53.7,198.7 C54.3,197.8 54.9,197.1 55.6,196.2 C59.5,191 60.3,191 57.8,189.7 C56.2,190.8 54.2,195 52.6,196.1 C52.6,194.8 52.8,195.2 52.9,194.1 L53.2,186 C52.6,185.6 52.3,185.3 51.5,185.1 C51.2,186.2 51.3,185.6 50.7,186.3 C49.5,187.7 44.6,194.2 44.2,195.5 Z" id="Path" fill="#0C294B"></path>
            <path d="M45.1,31.1 L47.6,34.4 C48.7,35.6 49.4,36.1 50.3,37.5 C48.2,37.5 43,35.1 40.7,34.9 L39.3,36.1 L47.4,45.6 C48.1,45.6 48.7,45 49.1,44.7 C48.9,43.6 47.5,42.1 46.7,41.3 L44,38 C45,38.1 45.4,38.3 46.3,38.6 L53.5,40.6 L54.9,39.4 L46.8,29.9 C46.1,29.9 45.8,30.7 45.1,31.1 Z" id="Path" fill="#0C294B"></path>
            <path d="M109.8,12.2 C109.8,13.8 110.1,13.9 110.1,15.4 C108.9,14.6 105.3,9.1 104.3,7.6 L102.3,7.6 C102.3,9.9 102.5,18.7 102.9,20.4 L104.9,20.4 L104.6,12 C105.3,12.5 105.5,13.2 106.1,14 L109.3,18.4 C110.6,20.4 110.7,20.2 112.4,20.2 L112.1,13.8 C112,11.4 112.3,9.5 111.8,7.4 L109.8,7.4 L109.8,12.2 Z" id="Path" fill="#0C294B"></path>
            <path d="M190.7,59.2 C190.7,57.8 191.9,56.9 192.7,56.3 C193.4,57.4 195.3,60 195.6,61.2 C194.3,61.5 194.4,61.8 192.7,61.8 C191.8,61.8 190.7,60.3 190.7,59.2 L190.7,59.2 Z M196.7,52.3 C196.8,55.1 201.6,56.9 197.3,59.8 C196.8,58.9 196.8,59 196.3,58.2 L193,53.4 C189.2,55.2 186.6,58.5 189.9,62.3 C190,62.4 190.1,62.6 190.2,62.6 L191.3,63.5 C194.8,65.8 205.4,60 200,53.7 C199,52.7 198.2,51.7 196.7,52.3 Z" id="Shape" fill="#0C294B"></path>
            <path d="M194.4,168.8 C193.5,168.2 192.1,167.3 191.5,166.5 C193.9,162 195.8,165.2 195.8,165.6 C195.9,167 195,168 194.4,168.8 L194.4,168.8 Z M188.6,167.9 C189.6,168.2 192.7,170.5 193.8,171.1 C200,175.2 199,174.8 200.2,172.5 C199.5,172 198.9,171.6 198.1,171.1 C197.2,170.5 196.7,170.5 196.1,169.6 C196.6,168.9 196.5,169.3 196.7,168.4 C199.3,168.4 200.3,169 202.8,169 C203.1,167.8 203.5,168.3 203.7,166.7 C201.6,166.7 200,166.1 197.9,166.1 C197.9,164.3 198,163.2 196.1,162.1 C194.8,161.4 193.6,161.3 192.4,162 C191.3,162.8 188.8,166.2 188.6,167.9 Z" id="Shape" fill="#0C294B"></path>
            <path d="M203.4,72 C204.6,71.4 205.8,70.8 206.9,70.8 C208.8,74.8 207.1,74.5 205.7,75.1 C203.3,73.9 204.2,73.7 203.4,72 L203.4,72 Z M196.2,72.5 C196.3,76.5 198.7,73.5 201.7,72.8 C201.9,73.6 202,73.7 202.3,74.2 C200.6,76.7 197.1,78.6 199.7,80.6 C200.6,80 200.9,79.6 201.6,78.7 C202.3,77.7 202.9,77.7 203.2,76.6 C203.8,76.6 208.1,79 209.8,75 C210.8,72.6 207.9,67.9 207.6,67.9 C206.7,67.9 203,69.6 201.9,70 L196.2,72.5 Z" id="Shape" fill="#0C294B"></path>
            <path d="M94.1,216.1 C90.1,216.1 91.6,210.2 92.2,208.9 C93.5,206 96.2,207.2 96.7,207.8 C98,209.4 97.2,212.6 96.6,214.2 C96.1,215.3 95.5,216.1 94.1,216.1 L94.1,216.1 Z M88.9,212.9 C88.9,216.9 91.3,218.1 94.7,218.1 C100.7,218.1 101.7,205.1 95.6,205.1 C93.1,205.1 91.8,204.8 90.1,207.7 C89.4,208.8 88.9,211 88.9,212.9 Z" id="Shape" fill="#0C294B"></path>
            <path d="M85.7,14.9 C85.7,14.1 85.9,13.2 86.2,12.8 C86.6,12.4 89.6,10.6 90.9,14 C94.4,22.9 85.7,23.5 85.7,14.9 L85.7,14.9 Z M83.4,14 C83.4,27.2 94.1,23.5 94.1,18.3 C94.1,15.3 93.4,10.6 90,9.9 C86.6,9.2 83.4,11.4 83.4,14 Z" id="Shape" fill="#0C294B"></path>
            <path d="M70,22.4 C69.8,22.2 69.8,22.3 69.6,21.9 L67.7,17.2 C66.5,17.3 66.7,17.5 65.7,17.8 C65.7,19.7 69.6,28.2 70.6,29.7 C71.5,29.5 71.4,29.3 72.3,29.1 C72.3,26.7 71.4,27.5 71.4,25.3 C71.4,24.3 71.6,24.2 71.7,23.3 C73.1,23.7 74.6,25.4 77.2,26.8 C78.4,26.2 78.9,26.6 79.2,25.4 C78.2,25.1 78.5,25 77.6,24.4 L72.6,21 L74.3,14.3 C71.8,14.5 71.7,15.2 71.2,17.3 C70.9,18.6 70.2,21 70,22.4 Z" id="Path" fill="#0C294B"></path>
            <path d="M120.8,16.6 C120.8,19.5 122.4,21.2 125.7,21.2 C128.6,21.2 129.9,19.2 130.3,16.8 C130.7,14.3 131.2,11.5 131.2,8.7 C128.5,8.7 129.1,7.3 128.6,11.6 C128.2,14.9 128.4,18.7 125.9,19 C121.9,19.5 123.3,14.6 123.7,12.4 C123.9,10.8 124.1,9.7 124.1,7.8 C123.2,7.6 123.2,7.5 122.1,7.5 C121.4,10.1 120.8,13.6 120.8,16.6 Z" id="Path" fill="#0C294B"></path>
            <path d="M128.3,216.3 C125.6,216.3 125.8,212.8 125.1,208.7 C124.9,207.1 124.9,206.9 124.2,205.8 C123.5,206 123.3,206.1 122.5,206.1 C122.5,208.7 123,211.2 123.4,213.6 C124.2,217.9 125.8,218.3 128.6,218.3 C131.2,218.3 133.2,216.3 133.2,214.2 C133.2,212.8 132.8,210.9 132.5,209.4 C132.2,208 131.8,205.9 131.7,204.6 C129.1,205.2 129.2,203.5 130.3,210.4 C130.8,213.5 131.6,216.3 128.3,216.3 Z" id="Path" fill="#0C294B"></path>
            <path d="M165.4,34.6 C165.4,39 170.7,42.2 174.2,37.6 C178.5,31.8 180,31.4 177.3,30 C174.2,32.1 172.4,39.5 168.6,37 C166.3,35.5 169.2,32.3 170.1,31 C173.4,26.7 173.7,26.9 171.5,25.7 C170.3,26.5 169.3,28.3 168.1,29.8 C167.3,30.7 165.4,33.1 165.4,34.6 Z" id="Path" fill="#0C294B"></path>
            <path d="M31.8,48.5 C33.5,48.9 34.6,49.8 36.4,50.2 C36.2,51 35.5,52.2 34.4,52.5 L31.8,48.5 L31.8,48.5 Z M28.9,47.6 C29.5,48.8 35.6,58.6 36.1,58.6 C36.9,58.6 36.7,58.4 37.5,57.2 L35.8,54.6 C36.6,53.4 37.4,52.7 38.1,51.4 C40.6,51.6 40.9,53.6 42.7,50.8 C41.9,49.7 35.2,47.5 33.5,46.9 C32.1,46.4 31.5,45.9 29.9,45.8 L29.3,46.9 C29.3,46.9 29.2,47 29.2,47.1 C29.2,47.1 29.1,47.2 29.1,47.3 C29.1,47.3 29,47.4 29,47.5 C29,47.5 28.9,47.6 28.9,47.6 Z" id="Shape" fill="#0C294B"></path>
            <path d="M19.6,154.9 C19.2,154 18.9,153.2 18.4,152.3 C20,152.3 21.8,151.8 23.3,151.7 C22.8,152.5 22.3,152.9 21.6,153.4 C20.7,154.1 20.7,154.3 19.6,154.9 L19.6,154.9 Z M12.4,150.8 C12.6,151.6 12.9,152.1 13.3,152.8 C15.4,152.8 15.2,152.5 16.5,152.5 C17.1,153.7 17.6,155 18.2,156.3 C18,156.5 15.9,158.2 15.9,158.3 C15.9,162.6 18.9,158.6 19.4,158.3 C20.4,157.6 20.8,156.8 21.8,156.1 C23,155.2 23.2,154.8 24.2,153.9 C25,153.1 25.6,153.1 26.6,151.7 C26.3,151.2 25.9,150 25.7,149.4 C22.7,149.4 13.9,150.8 12.4,150.8 Z" id="Shape" fill="#0C294B"></path>
            <path d="M38.7,183 C37.8,182.4 37.3,181.6 36.7,180.7 C38.5,180.3 39.6,179.1 41.3,178.7 C40.4,180.1 39.6,181.4 38.7,183 L38.7,183 Z M30.6,181.6 C30.6,182.2 31.4,183 31.8,183 C32.7,183 34,182.2 34.7,181.8 C35.9,182.6 36.9,183.7 37.6,185 C37,185.9 36.7,186.6 36.2,187.6 L37.6,189.1 C39,188.1 41.5,182.6 42.5,180.8 C42.9,180.1 44,178.5 44,177.7 C44,177.1 42.8,176 42.6,176 C41.2,176 35.2,179.2 33.5,180 C32.8,180.3 30.6,180.9 30.6,181.6 Z" id="Shape" fill="#0C294B"></path>
            <path d="M14.7,79.2 C15.5,79.2 16.5,79.1 17.3,79.2 C18.4,79.3 18.2,79.5 19.6,79.5 C19.5,80.7 19.1,80.9 19,82.1 C18,81.8 15.7,80.1 14.7,79.2 L14.7,79.2 Z M11.8,79.5 C11.8,79.7 14,81.3 14.4,81.6 C16.3,83 20.8,86.9 22.6,87.3 C22.8,86.6 22.9,86.1 23.2,85.6 L22.8,85.1 C22.8,85.1 22.7,85 22.7,85 L20.6,83.6 C21.8,78.6 22,79.5 25.2,79.9 C25.5,78.5 25.8,79.1 25.8,77.2 L12.5,77.2 C12.2,78 11.8,78.7 11.8,79.5 Z" id="Shape" fill="#0C294B"></path>
            <path d="M178.8,178.9 L185.5,185.2 C189,188.7 188.3,187.2 190.7,184.8 C191.4,184.1 195,180.7 192.1,180.7 C191.2,180.7 191.7,181 190.1,182.5 C189.4,183.2 188.8,183.7 188.3,184.5 C187.2,183.7 186.5,183.3 185.7,182.2 C187.4,179.1 190.2,179.1 187.4,177.3 C186.7,177.8 186.2,178.3 185.6,179 C184.8,179.9 185.1,180.1 183.9,180.8 L181.8,178.8 C183.2,176.3 185.1,175.9 185.1,174.7 C185.1,174.1 184.6,173.5 184.2,173.5 C183.4,173.4 179.1,178.4 178.8,178.9 Z" id="Path" fill="#0C294B"></path>
            <path d="M167.5,188.8 C168.1,189.7 168.6,190.4 169.3,191.3 L173.1,196.2 C173.6,196.8 173.7,196.8 174.2,197.4 C174.7,198.1 174.7,198.1 175.4,198.6 C177.8,197 179.4,195.4 181.5,194 C179.8,190.7 179.5,193.7 175.7,195.7 C175,194.3 174.4,194.2 173.7,192.8 C174.8,192.1 176.8,190.6 177.5,189.6 L177.1,189.1 C177.1,189.1 177,189 177,188.9 C175.9,187.7 175.7,188.8 173.3,190.6 C172.9,190.9 172.6,191.1 172.3,191.3 C171.6,190.1 171.2,189.9 170.6,188.7 C171.3,188.2 174.7,185.9 174.7,185.2 C174.7,182.3 170.8,186 170.7,186.1 L169.3,187.3 C168.1,188.1 168.1,187.8 167.5,188.8 Z" id="Path" fill="#0C294B"></path>
            <path d="M28,170.3 C28,170.5 27.3,171.1 27.1,171.5 C23,171.5 23.8,167.2 22.5,167.2 C21.7,167.2 21.7,167.3 21.1,167.5 C21.3,170 24.1,174.5 26.8,174.1 C28.3,173.9 30,172.6 30.3,171.2 C30.7,169.3 27.4,164.6 30.7,164.6 C31.9,164.6 33.3,167.6 33.6,168.7 C34.6,168.7 35.3,168.9 35.3,167.8 C35.3,166.8 34.3,165.1 33.8,164.4 C30.8,160.4 27.1,162.8 26.7,165.3 C26.4,166.6 28,168.6 28,170.3 Z" id="Path" fill="#0C294B"></path>
            <path d="M197.3,152.9 C197.3,155.3 201.1,158.3 204,154.4 C204.3,153.9 204.6,153.6 205,153.1 C206.2,151.6 207.8,152 208.2,153.2 C208.7,154.6 206.8,157.3 206.1,158.5 C207.7,159.6 207.4,160.3 209.4,157.1 C213.3,151 206.3,147.6 203.8,151.2 L202.1,153.8 C197,153.8 201.5,149.7 201.5,148 C201.5,147.5 200.7,147.3 200.3,147.1 C198.8,148 197.3,150.5 197.3,152.9 Z" id="Path" fill="#0C294B"></path>
            <path d="M18.7,63.6 C18.7,65.3 18.5,65.7 19.8,66.9 C23.6,70.4 25.8,64.2 27.4,64.2 L28.6,64.2 C29.6,65.7 30.5,64.9 26.9,70.3 L28,71.5 C30.9,69.5 33,64.7 30.5,62.7 C26.3,59.2 24.4,65.4 22.3,65.4 L21.7,65.4 C21.3,64.8 21.2,64.6 20.8,64 C21.3,63 21.2,62.9 21.8,61.9 C22,61.6 23.1,60 23.1,60 C23.1,59 22.2,57.7 20.1,60.7 C19.6,61.3 18.7,62.6 18.7,63.6 Z" id="Path" fill="#0C294B"></path>
            <path d="M74,212 L76.7,213.2 C77.1,212.5 76.9,212.6 77.5,212 C78,211.4 78.1,211.3 78.5,210.7 C79.5,209.6 84.2,204 84.5,202.8 C83.2,202.5 83.8,202.2 82.2,202.2 C81.5,203.6 77.2,209.3 76.1,210 L76.7,199.9 C75.5,199.6 75.9,199.4 74.4,199.3 L74,212 Z" id="Path" fill="#0C294B"></path>
            <path d="M154.1,196.9 C154.3,197.8 154.5,197.7 154.7,198.6 C156.2,198.3 156.9,197.3 158.2,197.2 C158.3,197.7 162.7,206.2 163.4,206.2 C166.6,206.2 163.3,202.2 162.4,200.5 C161.7,199.3 160.1,196.9 159.9,195.8 L162.8,194.4 L161.9,192.7 C159.2,194 156.6,195.3 154.1,196.9 Z" id="Path" fill="#0C294B"></path>
            <path d="M108,206.8 C108,208.6 107.7,209.2 107.7,211.1 L107.7,218.6 C107.7,220.1 110.8,219.5 114.9,219.5 C116.1,219.5 116.1,217.5 114.9,217.5 L110,217.5 L110.3,206.8 C109.2,206.7 109,206.4 108,206.8 Z" id="Path" fill="#0C294B"></path>
            <path d="M137,23.3 C138.3,24 142.9,25.6 144.8,25.6 C145,24.9 145.1,24.7 145.1,23.9 L139.9,22.2 C140.7,18.7 142.8,14.3 142.8,11.7 C141.9,11.5 141.9,11.4 140.8,11.4 L137,23.3 Z" id="Path" fill="#0C294B"></path>
            <path d="M177.3,46.5 C178.3,48.4 179.6,49 180.5,50.2 C181.3,51.3 180.9,51 182.8,52.3 L184,51.1 C183,49.6 181.7,48.1 180.2,47 C181.4,44.7 185.9,41.9 187.7,39.2 L186.3,37.7 C184.5,38.9 183.4,40.7 181.8,42 L179.5,44 C178.7,44.9 177.9,45.5 177.3,46.5 Z" id="Path" fill="#0C294B"></path>
            <path d="M151.2,28.8 L154.5,30.4 C155.8,31.1 156.6,31.6 158.2,31.9 C158.8,31 158.8,31.6 158.8,29.9 C157,29.8 155.6,28.3 153.9,27.9 C154.3,27 154.4,26.5 155,25.5 L158.5,18.3 C158.5,17.8 157.4,17.3 157.1,17.1 C156.2,17.7 154.5,21.2 153.8,22.5 C153.2,23.6 152.9,24.4 152.5,25.5 C151.9,26.7 151.3,27.2 151.2,28.8 Z" id="Path" fill="#0C294B"></path>
            <path d="M207.5,112 C207.5,117.2 213.9,116.8 213.9,112.3 C213.9,108.3 207.5,108.2 207.5,112 Z" id="Path" fill="#0C294B"></path>
            <path d="M10.3,112 C10.3,117.2 16.7,116.8 16.7,112.3 C16.7,110.7 15.3,109.4 13.7,109.2 C12.1,109.1 10.3,110.2 10.3,112 Z" id="Path" fill="#0C294B"></path>
            <path d="M201.7,87.9 C201.8,88.8 202,89.3 202.3,89.9 C203.6,89.9 209.4,88.1 211.6,87.6 C215.7,86.6 214.4,86.9 214.2,84.7 C212.4,84.7 203,87.3 201.7,87.9 Z" id="Path" fill="#0C294B"></path>
            <path d="M127.5,6.7 L127.5,7.3 C128.3,7.9 127.8,7.9 129.2,7.9 C129.9,6.5 130.4,5.6 127.7,5.6 C127.6,6.4 127.5,6.1 127.5,6.7 Z" id="Path" fill="#0C294B"></path>
            <path d="M215.3,85 C215.3,86.2 217.6,87 217.6,85 C217.6,83.5 215.3,83.5 215.3,85 Z" id="Path" fill="#0C294B"></path>
            <path d="M173.6,25.6 C173.6,26.9 174.9,26.8 175.6,26.8 C175.6,26.7 175.7,26.6 175.7,26.6 C175.7,26.6 175.8,26.4 175.8,26.4 C176.1,25.9 176,26.2 176.2,25.9 C175.5,24.6 176,25.1 174.8,24.5 C174.4,24.6 173.6,25.1 173.6,25.6 Z" id="Path" fill="#0C294B"></path>
            <path d="M176.5,27.6 C176.5,29.2 178.8,29.8 178.8,27.6 C178.8,26 176.5,26.8 176.5,27.6 Z" id="Path" fill="#0C294B"></path>
            <path d="M124,6.2 C124,7.5 124.2,7.4 125.7,7.4 C126,6.8 126.1,6.7 126.3,6 C126.3,6 126.2,5.8 126.2,5.8 C126.2,5.9 125.8,5.1 124.9,5.1 C124.5,5 124,5.6 124,6.2 Z" id="Path" fill="#0C294B"></path>
            <path d="M87.4,7.9 C87.4,9.3 87.9,9.1 89.4,9.1 C89.9,7.3 89.8,8.7 89.4,7.1 C88.4,7 87.4,6.8 87.4,7.9 Z" id="Path" fill="#0C294B"></path>
            <path d="M84,8.2 C84,10.9 86.3,10.1 86.3,8.8 C86.3,7.1 84.7,7.7 84,8.2 Z" id="Path" fill="#0C294B"></path>
            <path d="M137.1,138.4 L139.2,140.3 C138.5,139.3 138.2,138.7 137.3,138.2 L137.1,138.4 Z" id="Path" fill="#F5EFA2"></path>
            <path d="M85.3,138.2 C84.2,138.7 84.3,138.5 83.8,139.6 C84.8,139.1 84.8,139.1 85.3,138.2 Z" id="Path" fill="#ABDCEC"></path>
            <polygon id="Path" fill="#CBDB2A" points="111.5 191.1 111.2 191.1 111.5 191.5"></polygon>
        </g>
    </g>
</svg>